<?xml version="1.0" encoding="UTF-8"?>
<svg width="252px" height="160px" viewBox="0 0 252 160" version="1.1" xmlns="http://www.w3.org/2000/svg" xmlns:xlink="http://www.w3.org/1999/xlink">
    <!-- Generator: Sketch 55.2 (78181) - https://sketchapp.com -->
    <title>logo</title>
    <desc>Created with Sketch.</desc>
    <defs>
        <linearGradient x1="50%" y1="0%" x2="50%" y2="99.5222762%" id="linearGradient-1">
            <stop stop-color="#62C9FF" offset="0%"></stop>
            <stop stop-color="#188CFF" offset="51.2563345%"></stop>
            <stop stop-color="#226ABF" offset="100%"></stop>
        </linearGradient>
        <linearGradient x1="-2.22044605e-14%" y1="50%" x2="100%" y2="50%" id="linearGradient-2">
            <stop stop-color="#62C9FF" offset="0%"></stop>
            <stop stop-color="#0076DD" offset="52.4070946%"></stop>
            <stop stop-color="#0B6AB5" offset="100%"></stop>
        </linearGradient>
        <linearGradient x1="50%" y1="0%" x2="50%" y2="100%" id="linearGradient-3">
            <stop stop-color="#62C9FF" offset="0%"></stop>
            <stop stop-color="#0076DD" offset="51.5968117%"></stop>
            <stop stop-color="#033D80" offset="100%"></stop>
            <stop stop-color="#226ABF" offset="100%"></stop>
        </linearGradient>
        <linearGradient x1="50%" y1="0%" x2="50%" y2="99.3507179%" id="linearGradient-4">
            <stop stop-color="#62C9FF" offset="0%"></stop>
            <stop stop-color="#188CFF" offset="51.3302365%"></stop>
            <stop stop-color="#226ABF" offset="100%"></stop>
        </linearGradient>
        <linearGradient x1="17.2757304%" y1="50%" x2="82.6914486%" y2="7.00708443%" id="linearGradient-5">
            <stop stop-color="#0957A3" offset="0%"></stop>
            <stop stop-color="#0076DD" offset="49.4035051%"></stop>
            <stop stop-color="#64C2F3" offset="99.9498522%"></stop>
        </linearGradient>
    </defs>
    <g id="logo" stroke="none" stroke-width="1" fill="none" fill-rule="evenodd">
        <g id="iPhone-8" transform="translate(-116.000000, -97.000000)">
            <g id="logo" transform="translate(116.230639, 96.993132)">
                <path d="M13.7693615,47.0068679 L66.7410458,47.0068679 C67.4843062,47.0561198 68.0529711,47.2655008 68.4470405,47.6350108 C68.8411098,48.0045207 69.1793835,48.4744887 69.4618614,49.0449147 L112.663363,159.310244 L60.4253898,159.310244 C59.4545987,159.310244 58.693511,159.140597 58.1421265,158.801303 C57.5907421,158.46201 57.1715732,157.967515 56.8846198,157.317819 L13.7693615,47.0068679 Z" id="Path" fill="url(#linearGradient-1)"></path>
                <path d="M12.128732,47.0068679 C11.9282249,47.008709 7.91570811,68.5748197 0.0911817031,111.7052 C-0.168492451,113.479839 0.126473176,115.011293 0.976078584,116.299563 C1.82568399,117.587833 2.99580919,118.277919 4.48645417,118.36982 L39.7693615,118.006868 C21.5427823,70.6716934 12.3292392,47.0050267 12.128732,47.0068679 Z" id="Path-2" fill="url(#linearGradient-2)"></path>
                <polygon id="Path-3" fill="url(#linearGradient-3)" points="113.865569 159.162911 112.62141 156.070263 85.0672333 85.0182646 113.865569 0.00686787367 142.287652 74.3769149 114.911516 156.084428"></polygon>
                <path d="M115.489333,0.00686787367 L159.89802,116.242725 C160.197118,116.923692 160.50502,117.432461 160.821726,117.769031 C161.138432,118.105601 161.794059,118.305944 162.788606,118.37006 L214.769361,118.37006 L171.804685,2.79195816 C171.487344,1.91454667 170.93839,1.21828523 170.157822,0.703173848 C169.377255,0.188062462 168.519426,-0.0440395294 167.584335,0.00686787367 L115.489333,0.00686787367 Z" id="Path-4" fill="url(#linearGradient-4)"></path>
                <path d="M216.468171,118.36982 L186.664515,38.36982 L245.569955,38.36982 C248.215732,38.582267 249.948868,39.4795987 250.769361,41.0618149 C251.589855,42.6440312 251.589855,44.6724859 250.769361,47.1471791 L216.468171,118.36982 Z" id="Path-5" fill="url(#linearGradient-5)"></path>
            </g>
        </g>
    </g>
</svg>