<?xml version="1.0" encoding="UTF-8"?>
<svg width="500px" height="500px" viewBox="0 0 500 500" version="1.1" xmlns="http://www.w3.org/2000/svg" xmlns:xlink="http://www.w3.org/1999/xlink">
    <!-- Generator: Sketch 56.3 (81716) - https://sketch.com -->
    <title>7.9” iPad mini</title>
    <desc>Created with Sketch.</desc>
    <g id="7.9”-iPad-mini" stroke="none" stroke-width="1" fill="none" fill-rule="evenodd">
        <g id="logo" transform="translate(0.000000, 92.000000)" fill="#FFFFFF" fill-rule="nonzero">
            <path d="M26,93 L131.521282,93 C133.00188,93.0973606 134.134679,93.5112625 134.919678,94.2417055 C135.704676,94.9721484 136.378528,95.9011756 136.941233,97.0287871 L223,315 L118.940294,315 C117.006447,315 115.490336,314.664644 114.391961,313.993931 C113.293586,313.323221 112.458588,312.345709 111.886967,311.061398 L26,93 Z" id="Path"></path>
            <path d="M23.7881892,93 C23.3949329,93.0036377 15.5251482,135.614285 0.178835479,220.831943 C-0.330465733,224.338302 0.248052957,227.364172 1.91439155,229.909555 C3.58073014,232.454938 5.87570703,233.818421 8.79932219,234 L78,233.282874 C42.2520492,139.75732 24.1814457,92.9963621 23.7881892,93 Z" id="Path-2"></path>
            <polygon id="Path-3" points="223.871516 315 221.414526 308.879063 167 168.25368 223.871516 0 280 147.19243 225.937072 308.907098"></polygon>
            <path d="M228,0.0135767646 L316.119549,229.794575 C316.713046,231.140746 317.324011,232.146506 317.952447,232.811855 C318.580882,233.477204 319.881834,233.873252 321.8553,234 L425,234 L339.745782,5.51928595 C339.116086,3.78477396 338.026804,2.40836867 336.477934,1.39007009 C334.929066,0.371771511 333.226887,-0.0870595984 331.371399,0.0135767646 L228,0.0135767646 Z" id="Path-4"></path>
            <path d="M428.404493,234 L369,76 L486.410018,76 C491.683567,76.4195828 495.138044,78.1918129 496.773447,81.3166899 C498.408851,84.4415671 498.408851,88.4477652 496.773447,93.3352842 L428.404493,234 Z" id="Path-5"></path>
        </g>
    </g>
</svg>